#!OML:ASF F:\VICON\USERDATA\INSTALL\rory3\rory3.ASF
:FULLY-SPECIFIED
:DEGREES
330
root 0.745591 22.1055 7.27841 13.9893 -4.24999 -4.90253
lowerback -3.48539 0.253081 4.20499
upperback -4.01114 0.280158 1.42985
thorax -2.16309 0.0520134 -0.88012
lowerneck -13.1087 -2.82687 -5.9711
upperneck 25.899 -3.68234 4.06612
head 10.6641 -1.80348 1.99303
rclavicle -1.41479e-015 -8.62228e-015
rhumerus -45.5908 9.661 -87.9961
rradius 48.4232
rwrist 6.5383
rhand -22.5048 -46.7505
rfingers 7.12502
rthumb 3.92129 -76.6942
lclavicle -1.41479e-015 -8.62228e-015
lhumerus -41.8537 -14.3027 90.0613
lradius 45.8158
lwrist 5.34453
lhand -33.5932 -36.139
lfingers 7.12502
lthumb -6.78684 -6.2678
rfemur -28.076 1.3684 19.791
rtibia 51.6239
rfoot 19.3691 -2.3288
rtoes -13.6239
lfemur -27.9249 4.25624 -11.6047
ltibia 45.6449
lfoot 15.978 -0.775869
ltoes -15.5954
331
root 0.750336 22.1381 7.29812 13.9274 -3.969 -4.81326
lowerback -3.33217 0.135093 4.15753
upperback -4.00756 0.132064 1.41215
thorax -2.25185 -0.0225463 -0.874248
lowerneck -13.0234 -2.83437 -5.85206
upperneck 26.109 -3.70089 3.94205
head 10.7212 -1.81702 1.92824
rclavicle -1.29179e-014 2.31584e-014
rhumerus -45.2229 9.26864 -88.0317
rradius 47.0579
rwrist 6.75018
rhand -22.14 -46.8398
rfingers 7.12502
rthumb 4.27358 -76.7767
lclavicle -1.29179e-014 2.31584e-014
lhumerus -41.9647 -14.2187 90.0487
lradius 44.9749
lwrist 5.26564
lhand -33.4271 -35.7795
lfingers 7.12502
lthumb -6.62657 -5.90319
rfemur -27.9145 0.661157 19.853
rtibia 51.3299
rfoot 18.4019 -2.99158
rtoes -13.1536
lfemur -27.8607 4.35778 -11.7443
ltibia 45.2009
lfoot 16.3257 -0.468113
ltoes -15.0134
332
root 0.755671 22.1674 7.3157 14.1704 -3.77674 -4.66734
lowerback -3.5074 0.0707749 4.04097
upperback -4.02249 0.0381586 1.35475
thorax -2.17282 -0.0662257 -0.869478
lowerneck -13.0545 -2.8728 -5.59771
upperneck 26.3224 -3.74993 3.67507
head 10.7988 -1.8463 1.78331
rclavicle 1.5996e-015 2.65874e-014
rhumerus -44.7432 8.68249 -87.9858
rradius 45.7261
rwrist 7.06572
rhand -21.749 -46.5415
rfingers 7.12502
rthumb 4.65118 -76.4705
lclavicle 1.5996e-015 2.65874e-014
lhumerus -41.9451 -14.2521 89.9894
lradius 44.1458
lwrist 5.32801
lhand -32.9929 -35.4871
lfingers 7.12502
lthumb -6.20732 -5.59802
rfemur -28.086 0.0655531 19.828
rtibia 50.8065
rfoot 17.5337 -3.531
rtoes -13.0384
lfemur -28.1309 4.37562 -11.9445
ltibia 44.696
lfoot 17.0091 -0.156401
ltoes -14.1699
333
root 0.760557 22.1819 7.32557 14.5895 -3.69945 -4.64155
lowerback -3.71942 0.0357464 3.97973
upperback -4.10567 -0.0162838 1.35587
thorax -2.14238 -0.0924484 -0.834933
lowerneck -12.9681 -2.93963 -5.49105
upperneck 26.3985 -3.85116 3.57271
head 10.8112 -1.89551 1.71593
rclavicle 2.60905e-015 2.83268e-015
rhumerus -44.3402 8.19722 -87.9369
rradius 44.4846
rwrist 7.03987
rhand -22.365 -45.7943
rfingers 7.12502
rthumb 4.05633 -75.7355
lclavicle 2.60905e-015 2.83268e-015
lhumerus -41.978 -14.3506 90.0176
lradius 43.4431
lwrist 5.76225
lhand -32.6904 -35.5615
lfingers 7.12502
lthumb -5.91528 -5.66404
rfemur -28.4201 -0.319396 19.8851
rtibia 50.0638
rfoot 16.6927 -3.67345
rtoes -13.3939
lfemur -28.6079 4.46071 -12.005
ltibia 44.148
lfoot 17.6904 -0.0115455
ltoes -14.1077
334
root 0.761242 22.1811 7.33178 15.0217 -3.79153 -4.72748
lowerback -3.79379 0.0425324 3.91741
upperback -4.28665 -0.0031958 1.4251
thorax -2.28741 -0.0877593 -0.728112
lowerneck -12.7028 -2.93139 -5.61374
upperneck 26.4605 -3.87017 3.72701
head 10.7887 -1.90193 1.79339
rclavicle -1.59897e-014 1.14798e-014
rhumerus -44.1815 7.80966 -87.9035
rradius 43.363
rwrist 6.88985
rhand -23.1071 -45.2995
rfingers 7.12502
rthumb 3.33969 -75.2531
lclavicle -1.59897e-014 1.14798e-014
lhumerus -42.1315 -14.4796 90.1422
lradius 42.7419
lwrist 6.27405
lhand -32.4357 -35.1658
lfingers 7.12502
lthumb -5.66943 -5.26162
rfemur -28.7141 -0.328386 20.0045
rtibia 49.1084
rfoot 15.7707 -3.86788
rtoes -13.4192
lfemur -29.1638 4.6824 -11.9367
ltibia 43.555
lfoot 18.2392 0.212526
ltoes -14.0817
335
root 0.763208 22.1745 7.35002 15.589 -3.92907 -4.65052
lowerback -4.20799 0.0697045 3.74458
upperback -4.47972 0.0209144 1.42492
thorax -2.25404 -0.07278 -0.630998
lowerneck -12.2898 -2.82192 -5.75227
upperneck 26.4393 -3.76733 3.95531
head 10.7006 -1.84725 1.91722
rclavicle 2.00182e-014 -2.19657e-014
rhumerus -44.0827 7.35428 -87.8773
rradius 42.4912
rwrist 6.94044
rhand -22.4359 -46.274
rfingers 7.12502
rthumb 3.98788 -76.2164
lclavicle 2.00182e-014 -2.19657e-014
lhumerus -42.3299 -14.4691 90.151
lradius 42.184
lwrist 6.30846
lhand -31.7699 -34.1168
lfingers 7.12502
lthumb -5.02657 -4.1964
rfemur -29.0789 -0.376531 19.9004
rtibia 47.9632
rfoot 14.875 -3.87588
rtoes -13.1175
lfemur -29.8128 4.89011 -12.0775
ltibia 42.9076
lfoot 18.6499 0.263347
ltoes -14.5521
336
root 0.770125 22.1542 7.37535 16.3016 -3.88407 -4.6205
lowerback -4.8931 0.0524227 3.76283
upperback -4.6334 -0.0336752 1.42207
thorax -2.03319 -0.0992573 -0.645687
lowerneck -12.1509 -2.73152 -5.70983
upperneck 26.4801 -3.6516 3.93203
head 10.68 -1.79486 1.91844
rclavicle -1.48032e-014 1.93815e-015
rhumerus -43.9214 6.92384 -87.8579
rradius 41.9371
rwrist 6.97642
rhand -21.4238 -47.9571
rfingers 7.12502
rthumb 4.96512 -77.8789
lclavicle -1.48032e-014 1.93815e-015
lhumerus -42.4473 -14.396 90.0784
lradius 41.7203
lwrist 6.03541
lhand -31.1466 -33.5148
lfingers 7.12502
lthumb -4.42473 -3.58103
rfemur -29.5451 -0.623511 19.865
rtibia 46.6992
rfoot 14.1097 -3.4624
rtoes -13.6033
lfemur -30.5094 4.97447 -12.1494
ltibia 42.2074
lfoot 19.0143 0.0164066
ltoes -15.4024
337
root 0.774379 22.1167 7.39746 17.1019 -3.81927 -4.72518
lowerback -5.5106 0.0614077 3.88693
upperback -4.78857 -0.0533736 1.46111
thorax -1.8519 -0.111041 -0.675777
lowerneck -12.5448 -2.70164 -5.50113
upperneck 26.8011 -3.56223 3.62883
head 10.8629 -1.7652 1.78409
rclavicle -2.00338e-015 2.32578e-014
rhumerus -43.6806 6.42466 -87.7743
rradius 41.4572
rwrist 6.99188
rhand -21.5215 -48.4685
rfingers 7.12502
rthumb 4.87081 -78.3925
lclavicle -2.00338e-015 2.32578e-014
lhumerus -42.3755 -14.6056 90.1157
lradius 41.0408
lwrist 5.91886
lhand -30.9294 -33.2844
lfingers 7.12502
lthumb -4.21493 -3.34633
rfemur -30.1176 -0.662498 19.9831
rtibia 45.3711
rfoot 13.3988 -3.29558
rtoes -13.7937
lfemur -31.2611 5.00084 -12.013
ltibia 41.4564
lfoot 19.562 0.52549
ltoes -14.0898
338
root 0.774944 22.0635 7.40905 17.9092 -3.89404 -4.61479
lowerback -6.00972 0.115368 3.7038
upperback -4.96569 0.00470885 1.42552
thorax -1.75497 -0.0782162 -0.607626
lowerneck -12.9456 -2.71409 -5.27766
upperneck 27.0637 -3.54145 3.34985
head 11.0305 -1.76248 1.64561
rclavicle 7.60662e-015 -8.29926e-015
rhumerus -43.3402 5.73233 -87.6108
rradius 40.7943
rwrist 7.00865
rhand -21.7013 -48.4463
rfingers 7.12502
rthumb 4.69723 -78.3743
lclavicle 7.60662e-015 -8.29926e-015
lhumerus -42.2922 -15.0257 90.2078
lradius 40.3546
lwrist 5.81708
lhand -30.7621 -33.3725
lfingers 7.12502
lthumb -4.05338 -3.43131
rfemur -30.8185 -0.443558 19.8226
rtibia 44.0319
rfoot 12.7639 -3.63957
rtoes -13.4966
lfemur -32.0712 5.01518 -12.0996
ltibia 40.6817
lfoot 20.2679 1.48492
ltoes -11.7306
339
root 0.779756 21.9984 7.42354 18.6668 -3.98347 -4.5142
lowerback -6.53307 0.174792 3.59569
upperback -5.15055 0.0672728 1.37576
thorax -1.65382 -0.0453971 -0.595003
lowerneck -12.9247 -2.76797 -5.30403
upperneck 26.9959 -3.64009 3.45252
head 11.0083 -1.79758 1.67387
rclavicle -1.56201e-014 3.26504e-014
rhumerus -43.0292 5.1264 -87.477
rradius 39.9887
rwrist 6.90727
rhand -21.394 -48.7098
rfingers 7.12502
rthumb 4.9939 -78.6309
lclavicle -1.56201e-014 3.26504e-014
lhumerus -42.4614 -15.3069 90.2583
lradius 40.0396
lwrist 5.5309
lhand -30.5 -33.1586
lfingers 7.12502
lthumb -3.80032 -3.21277
rfemur -31.4858 -0.11024 19.5798
rtibia 42.7065
rfoot 12.0674 -4.29997
rtoes -12.2706
lfemur -32.8317 5.04984 -12.2149
ltibia 39.8955
lfoot 20.8995 1.75819
ltoes -11.535
340
root 0.787274 21.9297 7.45204 19.4915 -3.99904 -4.64096
lowerback -7.24371 0.22686 3.78016
upperback -5.35571 0.0971075 1.39955
thorax -1.47384 -0.0349349 -0.670975
lowerneck -12.6258 -2.79255 -5.37778
upperneck 26.7644 -3.6984 3.56623
head 10.8687 -1.82082 1.72112
rclavicle -9.31803e-017 -6.75868e-015
rhumerus -42.8884 4.75791 -87.4209
rradius 39.4515
rwrist 6.7238
rhand -21.4435 -48.6698
rfingers 7.12502
rthumb 4.94609 -78.592
lclavicle -9.31803e-017 -6.75868e-015
lhumerus -42.7884 -15.3811 90.2557
lradius 40.0064
lwrist 5.23478
lhand -29.9396 -32.3889
lfingers 7.12502
lthumb -3.25911 -2.43404
rfemur -32.1575 0.225844 19.5374
rtibia 41.4039
rfoot 11.3739 -4.83818
rtoes -10.5155
lfemur -33.5287 5.00217 -12.0419
ltibia 39.0906
lfoot 21.0145 1.57586
ltoes -12.2747
